<svg xmlns="http://www.w3.org/2000/svg" viewBox="0 0 61.76 45.96"><defs><style>.cls-1{fill:#f16077;}</style></defs><title>md_logo_silentred</title><g id="Layer_2" data-name="Layer 2"><g id="forside"><path class="cls-1" d="M44.3,0H22.86L16.69,14,10.58,0H0V45.93H11.58V25.44l5.13,11.25,4.57-10.86V46s16.15-.38,22.66-.38S61.76,41.13,61.76,23C61.76,8.59,50.77,0,44.3,0ZM41.15,35.23V13.37c2.72,0,8.31,0,8.31,10.54C49.46,33.33,44,35.23,41.15,35.23ZM29.71,43.49l-6.11.1V14.34l-7,16.58L9.26,14.76V43.61H2.32V2.32H9.07L16.66,19.8,24.37,2.32h5.34Z"/></g></g></svg>