<svg xmlns="http://www.w3.org/2000/svg" viewBox="0 0 107.14 101.99"><defs><style>.cls-1{fill:#f05133;}.cls-2{fill:#413000;}.cls-3{fill:#fff;}</style></defs><title>Asset 1</title><g id="Layer_2" data-name="Layer 2"><g id="Layer_1-2" data-name="Layer 1"><path class="cls-1" d="M89.42,52.36,49.63,12.57a5.87,5.87,0,0,0-8.3,0l-8.26,8.26L43.55,31.32a7,7,0,0,1,8.82,8.88L62.48,50.3a7,7,0,1,1-4.19,3.94l-9.42-9.42V69.61a7.13,7.13,0,0,1,1.85,1.32,7,7,0,1,1-9.88,0,7.1,7.1,0,0,1,2.29-1.52v-25a7,7,0,0,1-3.79-9.16L29,24.89,1.72,52.18a5.87,5.87,0,0,0,0,8.3l39.79,39.79a5.87,5.87,0,0,0,8.3,0l39.61-39.6A5.88,5.88,0,0,0,89.42,52.36Z"/><path class="cls-2" d="M63.12,32c-2.83,0-6-1.71-9.2-5C48.8,21.83,47.64,18,50.37,15.31a5.22,5.22,0,0,1,4.12-1.5h.17a3.21,3.21,0,0,1,1-3.05,4.15,4.15,0,0,1,3-1.06h.54c.69,0,1.44,0,2.38.06A7.28,7.28,0,0,1,63.83,3,8.16,8.16,0,0,1,69.54.5c2.47,0,5,1.28,7.39,3.69a14.83,14.83,0,0,1,2.42,3.06l6,6.08-3.21,3.15-2.56-2.25a6.85,6.85,0,0,1-1.9,3.43,7.24,7.24,0,0,1-5.11,2.2,10.11,10.11,0,0,1-7-3.4,14.46,14.46,0,0,1-1.92-2.39l-1.35.3L64.55,17c4.59,5.31,7.62,8.82,3.39,13A6.71,6.71,0,0,1,63.12,32ZM56.91,18.28a2.83,2.83,0,0,0-1.77.6c-.25.25-.53.69-.11,1.64a10.48,10.48,0,0,0,2.1,2.74c.8.83,2.7,2.76,4.07,2.76h0a1.24,1.24,0,0,0,.91-.39c.55-.54,0-1.29-1.38-2.88ZM71,6.77a3.33,3.33,0,0,0-2.29,1.1,2.83,2.83,0,0,0-1,2A3.6,3.6,0,0,0,69,12.32a3.59,3.59,0,0,0,2.51,1.21,2.88,2.88,0,0,0,2-.9c1.51-1.48,1.52-3.07,0-4.6A3.62,3.62,0,0,0,71,6.77Z"/><path class="cls-3" d="M69.54,1c2.25,0,4.65,1.11,7,3.54a14.33,14.33,0,0,1,2.38,3l5.66,5.78-2.52,2.46-2.88-2.52a6.51,6.51,0,0,1-1.91,4,6.67,6.67,0,0,1-4.76,2.06,9.6,9.6,0,0,1-6.64-3.25,13.19,13.19,0,0,1-2-2.6l-2.53.56L64,17.14c4.69,5.45,7.51,8.61,3.57,12.47a6.23,6.23,0,0,1-4.47,1.91c-2.68,0-5.72-1.64-8.84-4.82-5.26-5.36-5.9-8.74-3.56-11a4.71,4.71,0,0,1,3.77-1.36l.85,0A2.76,2.76,0,0,1,56,11.11a3.71,3.71,0,0,1,2.65-.91h.54c.92,0,1.91,0,3,.09a6.61,6.61,0,0,1,1.94-6.9A7.61,7.61,0,0,1,69.54,1m2,13a3.35,3.35,0,0,0,2.38-1c1.75-1.72,1.68-3.62,0-5.31A4.09,4.09,0,0,0,71,6.27a3.75,3.75,0,0,0-2.64,1.24c-1.45,1.42-1.67,3.21.25,5.16A4.06,4.06,0,0,0,71.5,14M61.2,26.52A1.76,1.76,0,0,0,62.46,26c.95-.93-.09-2.12-1.4-3.63l-3.94-4.61a3.73,3.73,0,0,0-2.33.77c-1.18,1.16,0,3,2,5.09,1.28,1.31,3,2.91,4.43,2.91M69.54,0a8.64,8.64,0,0,0-6.06,2.68A7.82,7.82,0,0,0,61,9.23l-1.78,0h-.56a4.68,4.68,0,0,0-3.33,1.2,3.78,3.78,0,0,0-1.21,2.92A5.54,5.54,0,0,0,50,15a5.05,5.05,0,0,0-1.33,5.36c.59,2,2.18,4.35,4.87,7.09,3.29,3.34,6.59,5.12,9.56,5.12a7.17,7.17,0,0,0,5.17-2.2c4.56-4.47,1.24-8.32-3.36-13.65l-.16-.18L63.2,14.68l.2,0a16.15,16.15,0,0,0,1.79,2.17,10.61,10.61,0,0,0,7.35,3.55A7.72,7.72,0,0,0,78,18a7.29,7.29,0,0,0,1.82-2.89l1.62,1.42.69.61.66-.65L85.31,14l.71-.7-.7-.71L79.75,6.94a15.74,15.74,0,0,0-2.47-3.1C74.82,1.33,72.14,0,69.54,0Zm2,13a3.1,3.1,0,0,1-2.15-1c-1.77-1.81-1.07-3-.26-3.75a2.85,2.85,0,0,1,1.94-1,3.25,3.25,0,0,1,2.16,1.11c1.31,1.33,1.3,2.61,0,3.89A2.36,2.36,0,0,1,71.5,13ZM61.2,25.52c-1.16,0-3-1.89-3.72-2.61s-2.73-2.94-2-3.67a2.15,2.15,0,0,1,1.21-.44L60.3,23l.05.06c.75.87,1.68,1.94,1.41,2.2a.75.75,0,0,1-.56.25Z"/><path class="cls-2" d="M70.13,29.55l3-2.95,2,1.58a.72.72,0,0,0,.2.13l.2-.2,8.7-8.54c.24-.23.21-.29.16-.4l-1.19-2.54,3.39-2.53,6.67,6.79L80.65,33.29l-.2.22a.92.92,0,0,0,.13.18l1.53,2.07-3,3ZM95.07,17.73a4.32,4.32,0,0,1-3-1.45,4.26,4.26,0,0,1-1.37-3,4.26,4.26,0,0,1,1.43-3A4.12,4.12,0,0,1,95,9a4.25,4.25,0,0,1,3,1.46,4.33,4.33,0,0,1,1.43,3,4.08,4.08,0,0,1-1.4,3A4.28,4.28,0,0,1,95.07,17.73Z"/><path class="cls-3" d="M95,9.45a3.8,3.8,0,0,1,2.68,1.31c1.68,1.72,1.72,3.6,0,5.25a3.42,3.42,0,0,1-5.3-.08,3.4,3.4,0,0,1,.05-5.28A3.67,3.67,0,0,1,95,9.45m-8.39,5.31,6,6.13-12.29,12c-.47.46-.5.55-.12,1.05l1.27,1.72L79.11,38l-8.27-8.44,2.33-2.29,1.69,1.3a.88.88,0,0,0,.5.25c.17,0,.32-.12.56-.35l8.7-8.54a.77.77,0,0,0,.25-1l-1-2.15,2.72-2M95,8.45h0a4.63,4.63,0,0,0-3.24,1.49,4.39,4.39,0,0,0-.07,6.69,4.8,4.8,0,0,0,3.41,1.6,4.73,4.73,0,0,0,3.31-1.51,4.59,4.59,0,0,0,1.55-3.32,4.82,4.82,0,0,0-1.57-3.34A4.79,4.79,0,0,0,95,8.45Zm-8.29,5L86,14l-2.72,2-.65.49.35.74.94,2-8.59,8.42-1.52-1.18-.69-.54-.63.61-2.33,2.3-.72.7.7.71L78.4,38.7l.7.71.71-.7,2.34-2.29.62-.61-.52-.7L81.1,33.56l12.19-12,.71-.7-.7-.71-6-6.13-.61-.63Z"/><path class="cls-2" d="M91.58,49.05a17.1,17.1,0,0,1-6.11-3.79c-1.85-1.88-2.71-3.54-2.69-5.21s.87-3.23,2.7-5l7.7-7.55-2.27-2.31,3.31-3.25.35.28A5.34,5.34,0,0,0,98,23.66c1.33,0,2.79-.69,4.71-2.22l.35-.29,3.43,3.5-4.5,4.41,4.32,4.41-3.67,3.6-4.33-4.41-6.72,6.59a3.93,3.93,0,0,0-1.32,2c0,.35,0,.86.88,1.74a9.44,9.44,0,0,0,2.68,1.83l.48.23L92,49.19Z"/><path class="cls-3" d="M103,21.83l2.76,2.81-4.21,4.12c-.2.21-.29.29-.06.53l4.09,4.17-3,2.91L98.27,32,91.19,38.9c-1.74,1.71-2,2.79-.45,4.39a9.56,9.56,0,0,0,2.83,1.93l-1.83,3.36a16.44,16.44,0,0,1-5.91-3.67c-3.46-3.52-3.35-6.24,0-9.53l7.76-7.6c.17-.18.29-.29.06-.53l-2-2.07,2.63-2.59A5.85,5.85,0,0,0,98,24.16c1.5,0,3.07-.78,5-2.33m.08-1.35-.7.56c-1.81,1.45-3.2,2.12-4.4,2.12a5,5,0,0,1-3.07-1.34l-.69-.57-.64.63-2.63,2.58-.72.7.7.72,1.57,1.59-7.34,7.2c-3.79,3.72-3.8,7.09,0,10.94a17.63,17.63,0,0,0,6.3,3.91l.8.29.41-.75,1.82-3.36.51-.93-1-.45a9,9,0,0,1-2.54-1.73c-.94-1-1.19-1.38.44-3l6.36-6.24,3.63,3.7.7.71.71-.7,3-2.9.72-.7-.7-.72-3.63-3.69,3.79-3.72.71-.7-.7-.71-2.76-2.81-.63-.65Z"/></g></g></svg>