<svg xmlns="http://www.w3.org/2000/svg" viewBox="0 0 140.61 130.95"><defs><style>.cls-1{fill:#9a2624;}.cls-2{fill:#2f7f3e;}.cls-3{fill:#194825;}</style></defs><title>Asset 5</title><g id="Layer_2" data-name="Layer 2"><g id="Layer_7" data-name="Layer 7"><path d="M118,18a16.1,16.1,0,0,0-2.94-1.84c-.74-.17-1.17-.22-1.17-.22l-1.23-.82a40.58,40.58,0,0,0-13.82-2.24c-7.45,0-16.18.59-20.17,3.18C78.45,12.31,76.21,5,72.35,3.7l-.1,0A14,14,0,0,0,68,3h-.17a12.94,12.94,0,0,0-5.67,1.31c.09.17.16.34.24.51A14.68,14.68,0,0,1,63,6.22a15.5,15.5,0,0,1,.37,9.21l-.88.21a40.84,40.84,0,0,0-16-2.94c-8.61,0-16.11,2.15-20.07,5.36a24.42,24.42,0,0,1,10.13-1.85,46.67,46.67,0,0,1,10.61,1.3c1.67.4,3.28.88,4.81,1.41l-1,.39c-13.38,5.18-23.3,12.12-23,16a79.35,79.35,0,0,1,18.72-5.81,87.59,87.59,0,0,1,16.16-1.7c.78,0,1.53,0,2.25,0h.31c3.41,3.68,7,11,8,17.15.16,1,.25,1.9.32,2.83.11-.67.23-1.35.38-2,1.05-4.77,4.08-13.9,6.64-17.83,1.28.13,2.8.27,4.69.4,13,.9,24,4.45,28.38,8.73-.65-5.24-10.35-12-23.58-16.87a44.71,44.71,0,0,1,8-2.71,43.91,43.91,0,0,1,10.12-1.25A23.24,23.24,0,0,1,118,18Zm15.49,7.13c6.69,9.23,8.8,22.25,6.34,38.73l-1,7.28a69.22,69.22,0,0,1-137,1.55l-.63-5.58c-.14-1-.27-2.23-.4-3.56v-.13A83.62,83.62,0,0,1,.73,49.72C1.87,34.3,7.66,22.78,17.49,16.38,19.57,14.17,32,1.65,47.41,1.65a27.3,27.3,0,0,1,12.2,2.87c.41-.22.92-.47,1.48-.73l.6-.34a12.57,12.57,0,0,1,2.89-1,40.87,40.87,0,0,1,6-1.51A44.75,44.75,0,0,1,78.29.25c11.87,0,24.24,4.32,36.78,12.85A30.35,30.35,0,0,1,133.53,25.14Zm3.05,40.35c5.81-34.2-9.57-44.94-17.82-48.19l6.47,5.24-7.6-3.62a22.15,22.15,0,0,0-9.26-1.68,43.41,43.41,0,0,0-9.89,1.22,46.09,46.09,0,0,0-5.56,1.7c12.71,5,21.19,11.5,21.85,16.79l.35,2.84-2-2c-4.28-4.2-15.43-7.6-27.75-8.44-1.68-.12-3-.24-4.1-.34C78.81,33.06,76,41.45,75.05,46c-.14.65-.27,1.31-.37,2l-1.35,8.5-.64-8.59c-.07-1-.17-1.92-.3-2.75A37,37,0,0,0,64.9,28.8c-.67,0-1.37,0-2.09,0a86.4,86.4,0,0,0-16,1.68,78.08,78.08,0,0,0-18.47,5.73L27,36.81l-.11-1.47C26.59,30.58,37.52,23.68,49,19c-.68-.19-1.35-.37-2-.53a45.52,45.52,0,0,0-10.38-1.28A23.3,23.3,0,0,0,26.86,19l-7.61,3.62,2-1.63,4.54-3.67C30.07,13.84,38,11.7,46.52,11.7a42.24,42.24,0,0,1,16,2.88,14.58,14.58,0,0,0-.47-7.94A18.82,18.82,0,0,0,59.68,8a24.53,24.53,0,0,0-12.27-3.3c-15.35,0-28,14.05-28,14.05C1,30.39,3,57.76,4.34,67.2c.18,1.3.35,2.27.45,2.8L6,71.19A50,50,0,0,0,15,78.38c13.46,8.2,33,13.35,54.69,13.35,20.71,0,39.42-4.69,52.78-12.23a49.08,49.08,0,0,0,12.32-9.74l1.25-1.41C136.25,67.38,136.43,66.43,136.58,65.49Zm-1.12,8.31A52.14,52.14,0,0,1,130.37,78,41.81,41.81,0,0,1,126,92.31c-.74.57-1.11.84-1.89,1.39a43.61,43.61,0,0,0,4.45-14.39c-.89.6-1.82,1.19-2.77,1.77a46.15,46.15,0,0,1-2.37,9.39c-.67.41-1,.61-1.7,1A48.35,48.35,0,0,0,124,82.1c-.81.46-1.64.91-2.48,1.34a51.05,51.05,0,0,1-2.33,9.32c-.73.38-1.1.56-1.85.91a53.42,53.42,0,0,0,2.28-9.29c-.89.43-1.8.86-2.73,1.27a56.49,56.49,0,0,1-2.21,9.3c-.79.33-1.19.5-2,.82a60.52,60.52,0,0,0,2.14-9.24c-1,.39-1.94.76-2.93,1.13a64.49,64.49,0,0,1-2.06,9.44l-2.14.72a68.39,68.39,0,0,0,2-9.34c-1,.36-2.1.7-3.17,1A70.7,70.7,0,0,1,103.21,104c-1.09.32-1.64.48-2.76.78a76.72,76.72,0,0,0,3-14.38c-1.43.39-2.88.76-4.35,1.1a88.93,88.93,0,0,1-1.43,9.12c-1,.21-1.44.3-2.41.49.64-3.51.92-5.42,1.29-9q-1.78.36-3.6.69c-.31,3.57-.54,5.48-1.08,9-1,.16-1.5.23-2.51.37.46-3.45.66-5.36.92-8.89-1.24.19-2.49.36-3.75.52-.18,3.48-.34,5.38-.69,8.81-1,.12-1.56.17-2.61.26.28-3.41.4-5.31.53-8.75-1.28.13-2.57.24-3.88.34-.06,3.4-.12,5.3-.29,8.69-1.07.06-1.6.09-2.68.13.08-3.37.11-5.27.11-8.64-1.32.07-2.66.12-4,.15.12,5.58.16,8.51.17,13.69-1.32,0-2,0-3.32,0-.22-5.18-.35-8.1-.59-13.66-1.71,0-3.41,0-5.1-.11.25,3.3.4,5.19.7,8.53-1.08-.05-1.61-.08-2.68-.15-.37-3.34-.57-5.22-.87-8.53-1.3-.08-2.59-.17-3.88-.29.38,3.3.63,5.19,1.12,8.53-1.05-.1-1.57-.15-2.61-.27-.57-3.34-.86-5.23-1.28-8.54-1.27-.14-2.53-.3-3.77-.48.5,3.33.83,5.22,1.51,8.57l-2.53-.38c-.75-3.36-1.12-5.26-1.67-8.6-1.22-.2-2.44-.41-3.64-.64.61,3.36,1,5.26,1.88,8.63-1-.18-1.47-.28-2.44-.49-.93-3.39-1.37-5.28-2-8.68-1.18-.25-2.34-.53-3.5-.82a88.48,88.48,0,0,0,3.91,13.87c-1.15-.28-1.72-.44-2.85-.75a81.77,81.77,0,0,1-4.21-13.95c-1.12-.31-2.22-.65-3.32-1a76.74,76.74,0,0,0,2.58,8.92c-.9-.27-1.34-.42-2.22-.7a72,72,0,0,1-2.7-9c-1.06-.36-2.11-.74-3.14-1.13a67.56,67.56,0,0,0,2.85,9.1l-2.11-.79a65.14,65.14,0,0,1-2.95-9.19c-1-.41-2-.84-2.94-1.28a60.56,60.56,0,0,0,3.08,9.32c-.8-.35-1.2-.52-2-.88a57.82,57.82,0,0,1-3.17-9.41c-.89-.43-1.75-.89-2.61-1.34a55.08,55.08,0,0,0,3.15,9.1c-.75-.37-1.12-.56-1.84-1a53.73,53.73,0,0,1-3.2-9.21c-.82-.47-1.62-1-2.4-1.45a51.25,51.25,0,0,0,5.73,14.16c-.86-.52-1.28-.79-2.1-1.33a48.74,48.74,0,0,1-5.79-14.25c-.67-.46-1.33-.94-2-1.42a45.31,45.31,0,0,0,3.28,9.05c-.62-.44-.92-.66-1.51-1.11a43.53,43.53,0,0,1-3.26-9.11q-.74-.58-1.44-1.2A66.22,66.22,0,0,0,135.46,73.8ZM98.88,11.89a44.4,44.4,0,0,1,10.73,1.27C97.12,5.52,86.49,3.25,78.29,3.25a40.66,40.66,0,0,0-4.24.21c3.08,2.12,4.9,7.41,5.48,11C83.28,12.77,89.77,11.89,98.88,11.89Z" transform="translate(-0.25 -0.25)"/><path class="cls-1" d="M118.76,17.3c8.25,3.25,23.63,14,17.82,48.19-.15.94-.33,1.89-.52,2.86l-1.25,1.41a49.08,49.08,0,0,1-12.32,9.74C109.13,87,90.42,91.73,69.71,91.73,48,91.73,28.48,86.58,15,78.38A50,50,0,0,1,6,71.19L4.79,70c-.1-.53-.27-1.5-.45-2.8C3,57.76,1,30.39,19.43,18.7L21.26,21l-2,1.63L26.86,19a23.3,23.3,0,0,1,9.72-1.76A45.52,45.52,0,0,1,47,18.49c.68.16,1.35.34,2,.53-11.47,4.66-22.4,11.56-22.06,16.32L27,36.81l1.33-.64a78.08,78.08,0,0,1,18.47-5.73,86.4,86.4,0,0,1,16-1.68c.72,0,1.42,0,2.09,0a37,37,0,0,1,7.49,16.32c.13.83.23,1.7.3,2.75l.64,8.59L74.68,48c.1-.66.23-1.32.37-2,1-4.54,3.76-12.93,6.18-17,1.06.1,2.42.22,4.1.34,12.32.84,23.47,4.24,27.75,8.44l2,2L114.77,37c-.66-5.29-9.14-11.76-21.85-16.79a46.09,46.09,0,0,1,5.56-1.7,43.41,43.41,0,0,1,9.89-1.22,22.15,22.15,0,0,1,9.26,1.68l7.6,3.62Z" transform="translate(-0.25 -0.25)"/><path class="cls-1" d="M130.37,78a52.14,52.14,0,0,0,5.09-4.23A66.23,66.23,0,0,1,5.39,75.09q.71.61,1.44,1.2a43.53,43.53,0,0,0,3.26,9.11c.59.45.89.67,1.51,1.11a45.31,45.31,0,0,1-3.28-9.05c.64.48,1.3,1,2,1.42a48.74,48.74,0,0,0,5.79,14.25c.82.54,1.24.81,2.1,1.33A51.25,51.25,0,0,1,12.45,80.3c.78.5,1.58,1,2.4,1.45A53.73,53.73,0,0,0,18.05,91c.72.39,1.09.58,1.84,1a55.08,55.08,0,0,1-3.15-9.1c.86.45,1.72.91,2.61,1.34a57.82,57.82,0,0,0,3.17,9.41c.77.36,1.17.53,2,.88a60.56,60.56,0,0,1-3.08-9.32c1,.44,1.94.87,2.94,1.28a65.14,65.14,0,0,0,2.95,9.19l2.11.79a67.56,67.56,0,0,1-2.85-9.1c1,.39,2.08.77,3.14,1.13a72,72,0,0,0,2.7,9c.88.28,1.32.43,2.22.7A76.74,76.74,0,0,1,32,89.19c1.1.34,2.2.68,3.32,1a81.77,81.77,0,0,0,4.21,13.95c1.13.31,1.7.47,2.85.75A88.48,88.48,0,0,1,38.51,91c1.16.29,2.32.57,3.5.82.66,3.4,1.1,5.29,2,8.68,1,.21,1.46.31,2.44.49-.85-3.37-1.27-5.27-1.88-8.63,1.2.23,2.42.44,3.64.64.55,3.34.92,5.24,1.67,8.6l2.53.38c-.68-3.35-1-5.24-1.51-8.57,1.24.18,2.5.34,3.77.48.42,3.31.71,5.2,1.28,8.54,1,.12,1.56.17,2.61.27-.49-3.34-.74-5.23-1.12-8.53,1.29.12,2.58.21,3.88.29.3,3.31.5,5.19.87,8.53,1.07.07,1.6.1,2.68.15-.3-3.34-.45-5.23-.7-8.53,1.69.07,3.39.1,5.1.11.24,5.56.37,8.48.59,13.66,1.34,0,2,0,3.32,0,0-5.18,0-8.11-.17-13.69,1.34,0,2.68-.08,4-.15,0,3.37,0,5.27-.11,8.64,1.08,0,1.61-.07,2.68-.13.17-3.39.23-5.29.29-8.69,1.31-.1,2.6-.21,3.88-.34-.13,3.44-.25,5.34-.53,8.75,1-.09,1.57-.14,2.61-.26.35-3.43.51-5.33.69-8.81,1.26-.16,2.51-.33,3.75-.52-.26,3.53-.46,5.44-.92,8.89,1-.14,1.52-.21,2.51-.37.54-3.48.77-5.39,1.08-9q1.82-.33,3.6-.69c-.37,3.63-.65,5.54-1.29,9,1-.19,1.46-.28,2.41-.49a88.93,88.93,0,0,0,1.43-9.12c1.47-.34,2.92-.71,4.35-1.1a76.72,76.72,0,0,1-3,14.38c1.12-.3,1.67-.46,2.76-.78a70.7,70.7,0,0,0,3.31-14.49c1.07-.32,2.13-.66,3.17-1a68.39,68.39,0,0,1-2,9.34l2.14-.72a64.49,64.49,0,0,0,2.06-9.44c1-.37,2-.74,2.93-1.13a60.52,60.52,0,0,1-2.14,9.24c.81-.32,1.21-.49,2-.82a56.49,56.49,0,0,0,2.21-9.3c.93-.41,1.84-.84,2.73-1.27a53.42,53.42,0,0,1-2.28,9.29c.75-.35,1.12-.53,1.85-.91a51.05,51.05,0,0,0,2.33-9.32c.84-.43,1.67-.88,2.48-1.34a48.35,48.35,0,0,1-2.36,9.37c.69-.39,1-.59,1.7-1a46.15,46.15,0,0,0,2.37-9.39c1-.58,1.88-1.17,2.77-1.77a43.61,43.61,0,0,1-4.45,14.39c.78-.55,1.15-.82,1.89-1.39A41.81,41.81,0,0,0,130.37,78Zm-8,22.41c2.08-2.53,2.79-4,1.49-2.92a53.61,53.61,0,0,0-5.31,6.22c-2,2.6-3,3.69-1.89,2.65A56.18,56.18,0,0,0,122.41,100.44Zm-3,1.67c.81-1.17.86-1.77-.4-.94a16.72,16.72,0,0,0-2.21,1.84c-.2.44-.31.65-.52,1.07a14.14,14.14,0,0,1,1.62-1.37c.66-.44.62-.13.2.47a9,9,0,0,1-2,2l-.51.33c-.35.48-.52.72-.88,1.19l.51-.34c.68-.46,1-.48.16.5A13.58,13.58,0,0,1,113,109c-.54.38-.81.43-.88.39-.49.54-.73.8-1.23,1.32.06.08.41-.06,1.08-.55a27.68,27.68,0,0,0,4.32-4c1-1.12,1-1.51.46-1.19l0,0A16.46,16.46,0,0,0,119.36,102.11Zm-15.31,7.71c.29-.56.43-.84.69-1.42-1.57.58-2.37.85-4,1.37-1,1.92-1.5,2.83-2.55,4.62a10,10,0,0,1,1-.42c1.47-.5,1.72-.09,1.17.85A5.17,5.17,0,0,1,98,116.89a2,2,0,0,1-1.29.12l-.92,1.24a2.32,2.32,0,0,0,1.52-.19,10.28,10.28,0,0,0,4.52-3.89c.61-1,.62-1.58.31-1.79a2,2,0,0,0-1.5.09,5.92,5.92,0,0,0-.56.23c.43-.73.64-1.1,1.06-1.85C102.33,110.46,102.91,110.25,104.05,109.82ZM97.38,113c.62-1.44.25-2.47-1.59-2a7.45,7.45,0,0,0-2.87,1.54l0,1.09a5.67,5.67,0,0,1,2-1.16c1.06-.26,1.17.34.85,1.12-.49,1.16-1.83,2.46-4.37,4.68l-1.26,1.1c-.16.37-.24.55-.41.91,2-.48,2.92-.76,4.8-1.38.28-.49.42-.74.69-1.25-1.17.38-1.76.55-3,.88,0,0,0,0,0,0l.93-.79C95.17,116.05,96.71,114.56,97.38,113Zm-19.6,5.13c.29-2.5-.56-4.4-2.83-4.34s-3.43,2-3.41,4.61,1,4.19,2.84,4.13S77.47,120.88,77.78,118.15Zm-7.28,4.3c0-.49,0-.74,0-1.24-1.36,0-2,0-3.32-.12v0l.64-.58c1.3-1.24,2.38-2.41,2.33-3.94a3,3,0,0,0-3.19-2.79,4,4,0,0,0-2.71.77l.66,1.22a2.82,2.82,0,0,1,1.83-.62,1.61,1.61,0,0,1,1.72,1.54c.07,1.14-.89,2.17-2.55,3.8l-.81.8c.06.37.09.55.16.91C67.3,122.36,68.32,122.41,70.5,122.45Zm-20.53-3c1.75.52,2.3-.4,1.61-2a5.87,5.87,0,0,0-1.95-2.38,6.8,6.8,0,0,0-2.18-1,4.18,4.18,0,0,0-.56-.11c-.23-.67-.34-1-.55-1.69,1.25.32,1.89.48,3.17.77-.22-.56-.32-.84-.53-1.41-1.76-.39-2.63-.6-4.34-1.06.59,1.8.88,2.63,1.55,4.28a7.28,7.28,0,0,1,1,.22,4.35,4.35,0,0,1,2.95,2.17c.47,1-.06,1.28-.87,1a7.09,7.09,0,0,1-1.83-.9c.15.43.23.64.39,1.06A8,8,0,0,0,50,119.43Zm-5.59-2,1.26.47a61.35,61.35,0,0,1-4.77-8.47c-.51-.15-.77-.24-1.27-.4-.55.19-.82.27-1.33.43.37.54.56.81.95,1.35l1-.32h0A59.19,59.19,0,0,0,44.38,117.43Zm-14.57-7.5c1.39.94.61-.14-1.57-2.87-2-2.51-4.07-4.91-5.63-5.85s-1,.47,1.25,3.1A35.76,35.76,0,0,0,29.81,109.93Zm-5-3.76,1,.8a53.5,53.5,0,0,1-7.43-8.46l-.93-.68a5.56,5.56,0,0,1-.57,0c.47.56.71.85,1.19,1.4.14,0,.22,0,.38,0h0A52.48,52.48,0,0,0,24.82,106.17Z" transform="translate(-0.25 -0.25)"/><path d="M123.9,97.52c1.3-1.08.59.39-1.49,2.92a56.18,56.18,0,0,1-5.71,6c-1.15,1-.16,0,1.89-2.65A53.61,53.61,0,0,1,123.9,97.52Zm-2.46,3.82c1.62-2,2.16-3,1.55-2.48a49.1,49.1,0,0,0-3.36,4c-1.68,2.09-2.31,2.78-1.78,2.31A36.38,36.38,0,0,0,121.44,101.34Z" transform="translate(-0.25 -0.25)"/><path class="cls-1" d="M123,98.86c.61-.51.07.49-1.55,2.48a36.38,36.38,0,0,1-3.59,3.88c-.53.47.1-.22,1.78-2.31A49.1,49.1,0,0,1,123,98.86Z" transform="translate(-0.25 -0.25)"/><path d="M119,101.17c1.26-.83,1.21-.23.4.94a16.46,16.46,0,0,1-2.55,2.81l0,0c.56-.32.5.07-.46,1.19a27.68,27.68,0,0,1-4.32,4c-.67.49-1,.63-1.08.55.5-.52.74-.78,1.23-1.32.07,0,.34,0,.88-.39a13.58,13.58,0,0,0,2.25-2.13c.82-1,.52-1-.16-.5l-.51.34c.36-.47.53-.71.88-1.19l.51-.33a9,9,0,0,0,2-2c.42-.6.46-.91-.2-.47a14.14,14.14,0,0,0-1.62,1.37c.21-.42.32-.63.52-1.07A16.72,16.72,0,0,1,119,101.17Z" transform="translate(-0.25 -0.25)"/><path class="cls-2" d="M115.1,16.17A16.1,16.1,0,0,1,118,18a23.24,23.24,0,0,0-9.67-1.77,43.91,43.91,0,0,0-10.12,1.25,44.71,44.71,0,0,0-8,2.71c13.23,4.84,22.93,11.63,23.58,16.87-4.35-4.28-15.33-7.83-28.38-8.73-1.89-.13-3.41-.27-4.69-.4C78.15,31.87,75.12,41,74.07,45.77c-.15.68-.27,1.36-.38,2-.07-.93-.16-1.88-.32-2.83-1-6.13-4.59-13.47-8-17.15h-.31l.07-2.16a20.85,20.85,0,0,0,7.22,1.13c4.85,0,10.08-1.29,10.08-4.12,0-.77-.41-1.85-2.34-2.75a14.09,14.09,0,0,1-2.33-3.62l.95-.22c4-2.59,12.72-3.18,20.17-3.18a40.58,40.58,0,0,1,13.82,2.24l1.23.82S114.36,16,115.1,16.17Z" transform="translate(-0.25 -0.25)"/><path d="M104.74,108.4c-.26.58-.4.86-.69,1.42-1.14.43-1.72.64-2.91,1-.42.75-.63,1.12-1.06,1.85a5.92,5.92,0,0,1,.56-.23,2,2,0,0,1,1.5-.09c.31.21.3.78-.31,1.79a10.28,10.28,0,0,1-4.52,3.89,2.32,2.32,0,0,1-1.52.19l.92-1.24a2,2,0,0,0,1.29-.12,5.17,5.17,0,0,0,2.41-2.07c.55-.94.3-1.35-1.17-.85a10,10,0,0,0-1,.42c1-1.79,1.57-2.7,2.55-4.62C102.37,109.25,103.17,109,104.74,108.4Z" transform="translate(-0.25 -0.25)"/><path class="cls-1" d="M109.61,13.16a44.4,44.4,0,0,0-10.73-1.27c-9.11,0-15.6.88-19.35,2.6-.58-3.62-2.4-8.91-5.48-11a40.66,40.66,0,0,1,4.24-.21C86.49,3.25,97.12,5.52,109.61,13.16Z" transform="translate(-0.25 -0.25)"/><path d="M95.79,111c1.84-.46,2.21.57,1.59,2s-2.21,3-4.12,4.71l-.93.79s0,0,0,0c1.2-.33,1.79-.5,3-.88-.27.51-.41.76-.69,1.25-1.88.62-2.84.9-4.8,1.38.17-.36.25-.54.41-.91l1.26-1.1c2.54-2.22,3.88-3.52,4.37-4.68.32-.78.21-1.38-.85-1.12a5.67,5.67,0,0,0-2,1.16l0-1.09A7.45,7.45,0,0,1,95.79,111Z" transform="translate(-0.25 -0.25)"/><path d="M82.43,22.66c0,2.83-5.23,4.12-10.08,4.12a20.85,20.85,0,0,1-7.22-1.13c-1.72-.68-2.87-1.66-2.87-3,0-.71.36-1.72,2-2.59a13.12,13.12,0,0,0,2.4-6.41v0c0-1.82,2.66-2.77,5.24-2.77s5.22,1,5.25,2.8h0a7.43,7.43,0,0,0,.58,2.61,14.09,14.09,0,0,0,2.33,3.62C82,20.81,82.43,21.89,82.43,22.66Zm-1,0c0-.73-.73-1.4-2-1.93a13.5,13.5,0,0,1-3.08-5.47,7.23,7.23,0,0,1-4.47,1.27,7.13,7.13,0,0,1-4.47-1.28,14.12,14.12,0,0,1-2.52,5.6c-1,.51-1.68,1.13-1.68,1.81,0,1.72,4.07,3.12,9.09,3.12S81.43,24.38,81.43,22.66Zm-5.25-9a.9.9,0,0,0-.18-.5,1.74,1.74,0,0,0-.51-.5,8,8,0,0,0-7.12,0,1.74,1.74,0,0,0-.51.5.9.9,0,0,0-.18.5c0,1,1.9,1.83,4.25,1.83S76.18,14.71,76.18,13.7Z" transform="translate(-0.25 -0.25)"/><path class="cls-3" d="M79.48,20.73c1.22.53,2,1.2,2,1.93,0,1.72-4.07,3.12-9.08,3.12s-9.09-1.4-9.09-3.12c0-.68.63-1.3,1.68-1.81a14.12,14.12,0,0,0,2.52-5.6,7.13,7.13,0,0,0,4.47,1.28,7.23,7.23,0,0,0,4.47-1.27A13.5,13.5,0,0,0,79.48,20.73Z" transform="translate(-0.25 -0.25)"/><path class="cls-2" d="M78.71,16.07l-.95.22a7.43,7.43,0,0,1-.58-2.61h0c0-1.84-2.65-2.8-5.25-2.8s-5.19,1-5.24,2.77v0a13.12,13.12,0,0,1-2.4,6.41c-1.66.87-2,1.88-2,2.59,0,1.33,1.15,2.31,2.87,3l-.07,2.16c-.72,0-1.47,0-2.25,0a87.59,87.59,0,0,0-16.16,1.7,79.35,79.35,0,0,0-18.72,5.81c-.28-3.84,9.64-10.78,23-16l1-.39c-1.53-.53-3.14-1-4.81-1.41a46.67,46.67,0,0,0-10.61-1.3,24.42,24.42,0,0,0-10.13,1.85c4-3.21,11.46-5.36,20.07-5.36a40.84,40.84,0,0,1,16,2.94l.88-.21A15.5,15.5,0,0,0,63,6.22a14.68,14.68,0,0,0-.58-1.39c-.08-.17-.15-.34-.24-.51A12.94,12.94,0,0,1,67.85,3H68a14,14,0,0,1,4.23.67l.1,0C76.21,5,78.45,12.31,78.71,16.07Z" transform="translate(-0.25 -0.25)"/><path d="M75,113.81c2.27-.06,3.12,1.84,2.83,4.34-.31,2.73-1.52,4.34-3.4,4.4s-2.81-1.56-2.84-4.13S72.76,113.88,75,113.81Zm1.21,4.46c.16-2-.26-3.18-1.31-3.15s-1.59,1.19-1.64,3.29.45,3,1.3,3S76,120.3,76.16,118.27Z" transform="translate(-0.25 -0.25)"/><path class="cls-1" d="M74.85,115.12c1.05,0,1.47,1.18,1.31,3.15s-.75,3.11-1.65,3.14-1.35-1-1.3-3S73.92,115.15,74.85,115.12Z" transform="translate(-0.25 -0.25)"/><path class="cls-2" d="M76,13.2a.9.9,0,0,1,.18.5c0,1-1.9,1.83-4.25,1.83s-4.25-.82-4.25-1.83a.9.9,0,0,1,.18-.5,1.74,1.74,0,0,1,.51-.5,8,8,0,0,1,7.12,0A1.74,1.74,0,0,1,76,13.2Z" transform="translate(-0.25 -0.25)"/><path d="M70.46,121.21c0,.5,0,.75,0,1.24-2.18,0-3.2-.09-5.28-.27-.07-.36-.1-.54-.16-.91l.81-.8c1.66-1.63,2.62-2.66,2.55-3.8a1.61,1.61,0,0,0-1.72-1.54,2.82,2.82,0,0,0-1.83.62l-.66-1.22a4,4,0,0,1,2.71-.77,3,3,0,0,1,3.19,2.79c0,1.53-1,2.7-2.33,3.94l-.64.58v0C68.46,121.16,69.1,121.19,70.46,121.21Z" transform="translate(-0.25 -0.25)"/><path class="cls-1" d="M62.08,6.64a14.58,14.58,0,0,1,.47,7.94,42.24,42.24,0,0,0-16-2.88c-8.51,0-16.45,2.14-20.72,5.59L21.26,21,19.43,18.7s12.63-14,28-14A24.53,24.53,0,0,1,59.68,8,18.82,18.82,0,0,1,62.08,6.64Z" transform="translate(-0.25 -0.25)"/><path d="M51.58,117.46c.69,1.57.14,2.49-1.61,2a8,8,0,0,1-2.13-1c-.16-.42-.24-.63-.39-1.06a7.09,7.09,0,0,0,1.83.9c.81.24,1.34,0,.87-1A4.35,4.35,0,0,0,47.2,115a7.28,7.28,0,0,0-1-.22c-.67-1.65-1-2.48-1.55-4.28,1.71.46,2.58.67,4.34,1.06.21.57.31.85.53,1.41-1.28-.29-1.92-.45-3.17-.77.21.68.32,1,.55,1.69a4.18,4.18,0,0,1,.56.11,6.8,6.8,0,0,1,2.18,1A5.87,5.87,0,0,1,51.58,117.46Z" transform="translate(-0.25 -0.25)"/><path d="M45.64,117.9l-1.26-.47a59.19,59.19,0,0,1-4.18-6.93h0l-1,.32c-.39-.54-.58-.81-.95-1.35.51-.16.78-.24,1.33-.43.5.16.76.25,1.27.4A61.35,61.35,0,0,0,45.64,117.9Z" transform="translate(-0.25 -0.25)"/><path d="M28.24,107.06c2.18,2.73,3,3.81,1.57,2.87a35.76,35.76,0,0,1-5.95-5.62c-2.26-2.63-2.77-4-1.25-3.1S26.23,104.55,28.24,107.06Zm.5,1.75c.66.43,0-.41-1.68-2.44a22.89,22.89,0,0,0-3.55-3.87c-.65-.4-.31.45,1.49,2.58A22.85,22.85,0,0,0,28.74,108.81Z" transform="translate(-0.25 -0.25)"/><path class="cls-1" d="M27.06,106.37c1.66,2,2.34,2.87,1.68,2.44A22.85,22.85,0,0,1,25,105.08c-1.8-2.13-2.14-3-1.49-2.58A22.89,22.89,0,0,1,27.06,106.37Z" transform="translate(-0.25 -0.25)"/><path d="M25.81,107l-1-.8a52.48,52.48,0,0,1-6.35-6.92h0c-.16,0-.24,0-.38,0-.48-.55-.72-.84-1.19-1.4a5.56,5.56,0,0,0,.57,0l.93.68A53.5,53.5,0,0,0,25.81,107Z" transform="translate(-0.25 -0.25)"/><polygon points="119.08 64.34 114.2 76.5 109.36 65.99 119.08 64.34"/><path d="M26.18,18.06a24.42,24.42,0,0,1,10.13-1.85,46.67,46.67,0,0,1,10.61,1.3c1.67.4,3.28.88,4.81,1.41l-1,.39c-13.38,5.18-23.3,12.12-23,16a79.35,79.35,0,0,1,18.72-5.81,87.59,87.59,0,0,1,16.16-1.7c.78,0,1.53,0,2.25,0h.31c3.41,3.68,7,11,8,17.15.16,1,.25,1.9.32,2.83.11-.67.23-1.35.38-2,1-4.77,4.08-13.9,6.64-17.83,1.28.13,2.8.27,4.69.4,13.05.9,24,4.45,28.38,8.73-.65-5.24-10.35-12-23.58-16.87a44.71,44.71,0,0,1,8-2.71,43.91,43.91,0,0,1,10.12-1.25A23.24,23.24,0,0,1,117.77,18a16.1,16.1,0,0,0-2.94-1.84c-.74-.17-1.17-.22-1.17-.22l-1.23-.82a40.58,40.58,0,0,0-13.82-2.24c-7.45,0-16.18.59-20.17,3.18C78.18,12.31,75.94,5,72.08,3.7l-.1,0A14,14,0,0,0,67.75,3h-.17a12.94,12.94,0,0,0-5.67,1.31c.09.17.16.34.24.51a14.68,14.68,0,0,1,.58,1.39,15.5,15.5,0,0,1,.37,9.21l-.88.21a40.84,40.84,0,0,0-16-2.94C37.64,12.7,30.14,14.85,26.18,18.06Zm107.08,7.08c6.69,9.23,8.8,22.25,6.34,38.73l-1,7.28a69.22,69.22,0,0,1-137,1.55L1,67.12c-.14-1-.27-2.23-.4-3.56v-.13A83.62,83.62,0,0,1,.46,49.72C1.6,34.3,7.39,22.78,17.22,16.38,19.3,14.17,31.77,1.65,47.14,1.65a27.3,27.3,0,0,1,12.2,2.87c.41-.22.92-.47,1.48-.73l.6-.34a12.57,12.57,0,0,1,2.89-1,40.87,40.87,0,0,1,6-1.51A44.75,44.75,0,0,1,78,.25c11.87,0,24.24,4.32,36.78,12.85A30.35,30.35,0,0,1,133.26,25.14Zm3.05,40.35c5.81-34.2-9.57-44.94-17.82-48.19L125,22.54l-7.6-3.62a22.15,22.15,0,0,0-9.26-1.68,43.41,43.41,0,0,0-9.89,1.22,46.09,46.09,0,0,0-5.56,1.7c12.71,5,21.19,11.5,21.85,16.79l.35,2.84-2-2c-4.28-4.2-15.43-7.6-27.75-8.44-1.68-.12-3-.24-4.1-.34-2.42,4.06-5.19,12.45-6.18,17-.14.65-.27,1.31-.37,2l-1.35,8.5-.64-8.59c-.07-1-.17-1.92-.3-2.75A37,37,0,0,0,64.63,28.8c-.67,0-1.37,0-2.09,0a86.4,86.4,0,0,0-16,1.68A78.08,78.08,0,0,0,28.1,36.17l-1.33.64-.11-1.47C26.32,30.58,37.25,23.68,48.72,19c-.68-.19-1.35-.37-2-.53a45.52,45.52,0,0,0-10.38-1.28A23.3,23.3,0,0,0,26.59,19L19,22.59,21,21l4.54-3.67c4.27-3.45,12.21-5.59,20.72-5.59a42.24,42.24,0,0,1,16,2.88,14.58,14.58,0,0,0-.47-7.94A18.82,18.82,0,0,0,59.41,8a24.53,24.53,0,0,0-12.27-3.3c-15.35,0-28,14.05-28,14.05C.69,30.39,2.74,57.76,4.07,67.2c.18,1.3.35,2.27.45,2.8l1.16,1.19a50,50,0,0,0,9.07,7.19c13.46,8.2,33,13.35,54.69,13.35,20.71,0,39.42-4.69,52.78-12.23a49.08,49.08,0,0,0,12.32-9.74l1.25-1.41C136,67.38,136.16,66.43,136.31,65.49Zm-1.12,8.31A52.14,52.14,0,0,1,130.1,78a41.81,41.81,0,0,1-4.41,14.28c-.74.57-1.11.84-1.89,1.39a43.61,43.61,0,0,0,4.45-14.39c-.89.6-1.82,1.19-2.77,1.77a46.15,46.15,0,0,1-2.37,9.39c-.67.41-1,.61-1.7,1a48.35,48.35,0,0,0,2.36-9.37c-.81.46-1.64.91-2.48,1.34A51.05,51.05,0,0,1,119,92.76c-.73.38-1.1.56-1.85.91a53.42,53.42,0,0,0,2.28-9.29c-.89.43-1.8.86-2.73,1.27a56.49,56.49,0,0,1-2.21,9.3c-.79.33-1.19.5-2,.82a60.52,60.52,0,0,0,2.14-9.24c-1,.39-1.94.76-2.93,1.13a64.49,64.49,0,0,1-2.06,9.44l-2.14.72a68.39,68.39,0,0,0,2-9.34c-1,.36-2.1.7-3.17,1A70.7,70.7,0,0,1,102.94,104c-1.09.32-1.64.48-2.76.78a76.72,76.72,0,0,0,3-14.38c-1.43.39-2.88.76-4.35,1.1a88.93,88.93,0,0,1-1.43,9.12c-1,.21-1.44.3-2.41.49.64-3.51.92-5.42,1.29-9q-1.78.36-3.6.69c-.31,3.57-.54,5.48-1.08,9-1,.16-1.5.23-2.51.37.46-3.45.66-5.36.92-8.89-1.24.19-2.49.36-3.75.52-.18,3.48-.34,5.38-.69,8.81-1,.12-1.56.17-2.61.26.28-3.41.4-5.31.53-8.75-1.28.13-2.57.24-3.88.34-.06,3.4-.12,5.3-.29,8.69-1.07.06-1.6.09-2.68.13.08-3.37.11-5.27.11-8.64-1.32.07-2.66.12-4,.15.12,5.58.16,8.51.17,13.69-1.32,0-2,0-3.32,0-.22-5.18-.35-8.1-.59-13.66-1.71,0-3.41,0-5.1-.11.25,3.3.4,5.19.7,8.53-1.08-.05-1.61-.08-2.68-.15-.37-3.34-.57-5.22-.87-8.53-1.3-.08-2.59-.17-3.88-.29.38,3.3.63,5.19,1.12,8.53-1-.1-1.57-.15-2.61-.27-.57-3.34-.86-5.23-1.28-8.54-1.27-.14-2.53-.3-3.77-.48.5,3.33.83,5.22,1.51,8.57l-2.53-.38c-.75-3.36-1.12-5.26-1.67-8.6-1.22-.2-2.44-.41-3.64-.64.61,3.36,1,5.26,1.88,8.63-1-.18-1.47-.28-2.44-.49-.93-3.39-1.37-5.28-2-8.68-1.18-.25-2.34-.53-3.5-.82a88.48,88.48,0,0,0,3.91,13.87c-1.15-.28-1.72-.44-2.85-.75a81.77,81.77,0,0,1-4.21-13.95c-1.12-.31-2.22-.65-3.32-1a76.74,76.74,0,0,0,2.58,8.92c-.9-.27-1.34-.42-2.22-.7-.55-1.53-1-2.76-1.34-4-.48-1.53-.88-3-1.36-5-1.06-.36-2.11-.74-3.14-1.13a65.58,65.58,0,0,0,2,6.71c.26.73.55,1.51.88,2.39L27,95.59a65.14,65.14,0,0,1-3-9.19c-1-.41-2-.84-2.94-1.28a60.56,60.56,0,0,0,3.08,9.32c-.8-.35-1.2-.52-2-.88a57.82,57.82,0,0,1-3.17-9.41c-.89-.43-1.75-.89-2.61-1.34a55.08,55.08,0,0,0,3.15,9.1c-.75-.37-1.12-.56-1.84-1a53.73,53.73,0,0,1-3.2-9.21c-.82-.47-1.62-1-2.4-1.45a51.25,51.25,0,0,0,5.73,14.16c-.86-.52-1.28-.79-2.1-1.33A48.74,48.74,0,0,1,10,78.88c-.67-.46-1.33-.94-2-1.42a45.31,45.31,0,0,0,3.28,9.05c-.62-.44-.92-.66-1.51-1.11a43.53,43.53,0,0,1-3.26-9.11q-.73-.58-1.44-1.2A66.22,66.22,0,0,0,135.19,73.8ZM98.61,11.89a44.4,44.4,0,0,1,10.73,1.27C96.85,5.52,86.22,3.25,78,3.25a40.66,40.66,0,0,0-4.24.21c3.08,2.12,4.9,7.41,5.48,11C83,12.77,89.5,11.89,98.61,11.89Z" transform="translate(-0.25 -0.25)"/><path class="cls-1" d="M118.49,17.3c8.25,3.25,23.63,14,17.82,48.19-.15.94-.33,1.89-.52,2.86l-1.25,1.41a49.08,49.08,0,0,1-12.32,9.74C108.86,87,90.15,91.73,69.44,91.73c-21.72,0-41.23-5.15-54.69-13.35a50,50,0,0,1-9.07-7.19L4.52,70c-.1-.53-.27-1.5-.45-2.8C2.74,57.76.69,30.39,19.16,18.7L21,21l-2,1.63L26.59,19a23.3,23.3,0,0,1,9.72-1.76,45.52,45.52,0,0,1,10.38,1.28c.68.16,1.35.34,2,.53-11.47,4.66-22.4,11.56-22.06,16.32l.11,1.47,1.33-.64a78.08,78.08,0,0,1,18.47-5.73,86.4,86.4,0,0,1,16-1.68c.72,0,1.42,0,2.09,0a37,37,0,0,1,7.49,16.32c.13.83.23,1.7.3,2.75l.64,8.59L74.41,48c.1-.66.23-1.32.37-2,1-4.54,3.76-12.93,6.18-17,1.06.1,2.42.22,4.1.34,12.32.84,23.47,4.24,27.75,8.44l2,2L114.5,37c-.66-5.29-9.14-11.76-21.85-16.79a46.09,46.09,0,0,1,5.56-1.7,43.41,43.41,0,0,1,9.89-1.22,22.15,22.15,0,0,1,9.26,1.68l7.6,3.62Z" transform="translate(-0.25 -0.25)"/><path class="cls-1" d="M130.1,78a52.14,52.14,0,0,0,5.09-4.23A66.23,66.23,0,0,1,5.12,75.09q.7.61,1.44,1.2A43.53,43.53,0,0,0,9.82,85.4c.59.45.89.67,1.51,1.11a45.31,45.31,0,0,1-3.28-9.05c.64.48,1.3,1,2,1.42a48.74,48.74,0,0,0,5.79,14.25c.82.54,1.24.81,2.1,1.33A51.25,51.25,0,0,1,12.18,80.3c.78.5,1.58,1,2.4,1.45A53.73,53.73,0,0,0,17.78,91c.72.39,1.09.58,1.84,1a55.08,55.08,0,0,1-3.15-9.1c.86.45,1.72.91,2.61,1.34a57.82,57.82,0,0,0,3.17,9.41c.77.36,1.17.53,2,.88a60.56,60.56,0,0,1-3.08-9.32c1,.44,1.94.87,2.94,1.28a65.14,65.14,0,0,0,3,9.19l2.11.79c-.33-.88-.62-1.66-.88-2.39l2.53-.54c.37,1.2.79,2.43,1.34,4,.88.28,1.32.43,2.22.7a76.74,76.74,0,0,1-2.58-8.92c1.1.34,2.2.68,3.32,1a81.77,81.77,0,0,0,4.21,13.95c1.13.31,1.7.47,2.85.75A88.48,88.48,0,0,1,38.24,91c1.16.29,2.32.57,3.5.82.66,3.4,1.1,5.29,2,8.68,1,.21,1.46.31,2.44.49-.85-3.37-1.27-5.27-1.88-8.63,1.2.23,2.42.44,3.64.64.55,3.34.92,5.24,1.67,8.6l2.53.38c-.68-3.35-1-5.24-1.51-8.57,1.24.18,2.5.34,3.77.48.42,3.31.71,5.2,1.28,8.54,1,.12,1.56.17,2.61.27-.49-3.34-.74-5.23-1.12-8.53,1.29.12,2.58.21,3.88.29.3,3.31.5,5.19.87,8.53,1.07.07,1.6.1,2.68.15-.3-3.34-.45-5.23-.7-8.53,1.69.07,3.39.1,5.1.11.24,5.56.37,8.48.59,13.66,1.34,0,2,0,3.32,0,0-5.18,0-8.11-.17-13.69,1.34,0,2.68-.08,4-.15,0,3.37,0,5.27-.11,8.64,1.08,0,1.61-.07,2.68-.13.17-3.39.23-5.29.29-8.69,1.31-.1,2.6-.21,3.88-.34-.13,3.44-.25,5.34-.53,8.75,1-.09,1.57-.14,2.61-.26.35-3.43.51-5.33.69-8.81,1.26-.16,2.51-.33,3.75-.52-.26,3.53-.46,5.44-.92,8.89,1-.14,1.52-.21,2.51-.37.54-3.48.77-5.39,1.08-9q1.81-.33,3.6-.69c-.37,3.63-.65,5.54-1.29,9,1-.19,1.46-.28,2.41-.49a88.93,88.93,0,0,0,1.43-9.12c1.47-.34,2.92-.71,4.35-1.1a76.72,76.72,0,0,1-3,14.38c1.12-.3,1.67-.46,2.76-.78a70.7,70.7,0,0,0,3.31-14.49c1.07-.32,2.13-.66,3.17-1a68.39,68.39,0,0,1-2,9.34l2.14-.72a64.49,64.49,0,0,0,2.06-9.44c1-.37,2-.74,2.93-1.13a60.52,60.52,0,0,1-2.14,9.24c.81-.32,1.21-.49,2-.82a56.49,56.49,0,0,0,2.21-9.3c.93-.41,1.84-.84,2.73-1.27a53.42,53.42,0,0,1-2.28,9.29c.75-.35,1.12-.53,1.85-.91a51.05,51.05,0,0,0,2.33-9.32c.84-.43,1.67-.88,2.48-1.34a48.35,48.35,0,0,1-2.36,9.37c.69-.39,1-.59,1.7-1a46.15,46.15,0,0,0,2.37-9.39c1-.58,1.88-1.17,2.77-1.77A43.61,43.61,0,0,1,123.8,93.7c.78-.55,1.15-.82,1.89-1.39A41.81,41.81,0,0,0,130.1,78Zm-8,22.41c2.08-2.53,2.79-4,1.49-2.92a53.61,53.61,0,0,0-5.31,6.22c-2,2.6-3,3.69-1.89,2.65A56.18,56.18,0,0,0,122.14,100.44Zm-3,1.67c.81-1.17.86-1.77-.4-.94a16.72,16.72,0,0,0-2.21,1.84c-.2.44-.31.65-.52,1.07a14.14,14.14,0,0,1,1.62-1.37c.66-.44.62-.13.2.47a9,9,0,0,1-2,2l-.51.33c-.35.48-.52.72-.88,1.19l.51-.34c.68-.46,1-.48.16.5a13.58,13.58,0,0,1-2.25,2.13c-.54.38-.81.43-.88.39-.49.54-.73.8-1.23,1.32.06.08.41-.06,1.08-.55a27.68,27.68,0,0,0,4.32-4c1-1.12,1-1.51.46-1.19l0,0A16.46,16.46,0,0,0,119.09,102.11Zm-15.31,7.71c.29-.56.43-.84.69-1.42-1.57.58-2.37.85-4,1.37-1,1.92-1.5,2.83-2.55,4.62a10,10,0,0,1,1-.42c1.47-.5,1.72-.09,1.17.85a5.17,5.17,0,0,1-2.41,2.07,2,2,0,0,1-1.29.12l-.92,1.24a2.32,2.32,0,0,0,1.52-.19,10.28,10.28,0,0,0,4.52-3.89c.61-1,.62-1.58.31-1.79a2,2,0,0,0-1.5.09,5.92,5.92,0,0,0-.56.23c.43-.73.64-1.1,1.06-1.85C102.06,110.46,102.64,110.25,103.78,109.82ZM97.11,113c.62-1.44.25-2.47-1.59-2a7.45,7.45,0,0,0-2.87,1.54l0,1.09a5.67,5.67,0,0,1,2-1.16c1.06-.26,1.17.34.85,1.12-.49,1.16-1.83,2.46-4.37,4.68l-1.26,1.1c-.16.37-.24.55-.41.91,2-.48,2.92-.76,4.8-1.38.28-.49.42-.74.69-1.25-1.17.38-1.76.55-3,.88,0,0,0,0,0,0l.93-.79C94.9,116.05,96.44,114.56,97.11,113Zm-19.6,5.13c.29-2.5-.56-4.4-2.83-4.34s-3.43,2-3.41,4.61,1,4.19,2.84,4.13S77.2,120.88,77.51,118.15Zm-7.28,4.3c0-.49,0-.74,0-1.24-1.36,0-2,0-3.32-.12v0l.64-.58c1.3-1.24,2.38-2.41,2.33-3.94a3,3,0,0,0-3.19-2.79,4,4,0,0,0-2.71.77l.66,1.22a2.82,2.82,0,0,1,1.83-.62,1.61,1.61,0,0,1,1.72,1.54c.07,1.14-.89,2.17-2.55,3.8l-.81.8c.06.37.09.55.16.91C67,122.36,68.05,122.41,70.23,122.45Zm-20.53-3c1.75.52,2.3-.4,1.61-2a5.87,5.87,0,0,0-2-2.38,6.8,6.8,0,0,0-2.18-1,4.18,4.18,0,0,0-.56-.11c-.23-.67-.34-1-.55-1.69,1.25.32,1.89.48,3.17.77-.22-.56-.32-.84-.53-1.41-1.76-.39-2.63-.6-4.34-1.06.59,1.8.88,2.63,1.55,4.28a7.28,7.28,0,0,1,1,.22,4.35,4.35,0,0,1,3,2.17c.47,1-.06,1.28-.87,1a7.09,7.09,0,0,1-1.83-.9c.15.43.23.64.39,1.06A8,8,0,0,0,49.7,119.43Zm-5.59-2,1.26.47a61.35,61.35,0,0,1-4.77-8.47c-.51-.15-.77-.24-1.27-.4-.55.19-.82.27-1.33.43.37.54.56.81,1,1.35l.95-.32h0A59.19,59.19,0,0,0,44.11,117.43Zm-14.57-7.5c1.39.94.61-.14-1.57-2.87-2-2.51-4.07-4.91-5.63-5.85s-1,.47,1.25,3.1A35.76,35.76,0,0,0,29.54,109.93Zm-5-3.76,1,.8a53.5,53.5,0,0,1-7.43-8.46l-.93-.68a5.56,5.56,0,0,1-.57,0c.47.56.71.85,1.19,1.4.14,0,.22,0,.38,0h0A52.48,52.48,0,0,0,24.55,106.17Z" transform="translate(-0.25 -0.25)"/><path d="M123.63,97.52c1.3-1.08.59.39-1.49,2.92a56.18,56.18,0,0,1-5.71,6c-1.15,1-.16,0,1.89-2.65A53.61,53.61,0,0,1,123.63,97.52Zm-2.46,3.82c1.62-2,2.16-3,1.55-2.48a49.1,49.1,0,0,0-3.36,4c-1.68,2.09-2.31,2.78-1.78,2.31A36.38,36.38,0,0,0,121.17,101.34Z" transform="translate(-0.25 -0.25)"/><path class="cls-1" d="M122.72,98.86c.61-.51.07.49-1.55,2.48a36.38,36.38,0,0,1-3.59,3.88c-.53.47.1-.22,1.78-2.31A49.1,49.1,0,0,1,122.72,98.86Z" transform="translate(-0.25 -0.25)"/><path d="M118.69,101.17c1.26-.83,1.21-.23.4.94a16.46,16.46,0,0,1-2.55,2.81l0,0c.56-.32.5.07-.46,1.19a27.68,27.68,0,0,1-4.32,4c-.67.49-1,.63-1.08.55.5-.52.74-.78,1.23-1.32.07,0,.34,0,.88-.39a13.58,13.58,0,0,0,2.25-2.13c.82-1,.52-1-.16-.5l-.51.34c.36-.47.53-.71.88-1.19l.51-.33a9,9,0,0,0,2-2c.42-.6.46-.91-.2-.47a14.14,14.14,0,0,0-1.62,1.37c.21-.42.32-.63.52-1.07A16.72,16.72,0,0,1,118.69,101.17Z" transform="translate(-0.25 -0.25)"/><path class="cls-2" d="M114.83,16.17A16.1,16.1,0,0,1,117.77,18a23.24,23.24,0,0,0-9.67-1.77A43.91,43.91,0,0,0,98,17.49a44.71,44.71,0,0,0-8,2.71c13.23,4.84,22.93,11.63,23.58,16.87-4.35-4.28-15.33-7.83-28.38-8.73-1.89-.13-3.41-.27-4.69-.4L78.2,26c2.31-.66,4-1.77,4-3.36,0-.77-.41-1.85-2.34-2.75a14.09,14.09,0,0,1-2.33-3.62l1-.22c4-2.59,12.72-3.18,20.17-3.18a40.58,40.58,0,0,1,13.82,2.24l1.23.82S114.09,16,114.83,16.17Z" transform="translate(-0.25 -0.25)"/><path d="M104.47,108.4c-.26.58-.4.86-.69,1.42-1.14.43-1.72.64-2.91,1-.42.75-.63,1.12-1.06,1.85a5.92,5.92,0,0,1,.56-.23,2,2,0,0,1,1.5-.09c.31.21.3.78-.31,1.79A10.28,10.28,0,0,1,97,118.06a2.32,2.32,0,0,1-1.52.19l.92-1.24a2,2,0,0,0,1.29-.12,5.17,5.17,0,0,0,2.41-2.07c.55-.94.3-1.35-1.17-.85a10,10,0,0,0-1,.42c1-1.79,1.57-2.7,2.55-4.62C102.1,109.25,102.9,109,104.47,108.4Z" transform="translate(-0.25 -0.25)"/><path class="cls-1" d="M109.34,13.16a44.4,44.4,0,0,0-10.73-1.27c-9.11,0-15.6.88-19.35,2.6-.58-3.62-2.4-8.91-5.48-11A40.66,40.66,0,0,1,78,3.25C86.22,3.25,96.85,5.52,109.34,13.16Z" transform="translate(-0.25 -0.25)"/><path d="M95.52,111c1.84-.46,2.21.57,1.59,2s-2.21,3-4.12,4.71l-.93.79s0,0,0,0c1.2-.33,1.79-.5,3-.88-.27.51-.41.76-.69,1.25-1.88.62-2.84.9-4.8,1.38.17-.36.25-.54.41-.91l1.26-1.1c2.54-2.22,3.88-3.52,4.37-4.68.32-.78.21-1.38-.85-1.12a5.67,5.67,0,0,0-2,1.16l0-1.09A7.45,7.45,0,0,1,95.52,111Z" transform="translate(-0.25 -0.25)"/><path d="M82.16,22.66c0,1.59-1.65,2.7-4,3.36a22.85,22.85,0,0,1-6.12.76,20.85,20.85,0,0,1-7.22-1.13C63.14,25,62,24,62,22.66c0-.71.36-1.72,2-2.59a12.84,12.84,0,0,0,1.9-3.86,12,12,0,0,0,.5-2.55v0c0-1.82,2.66-2.77,5.24-2.77s5.22,1,5.25,2.8h0a7.43,7.43,0,0,0,.58,2.61,14.09,14.09,0,0,0,2.33,3.62C81.75,20.81,82.16,21.89,82.16,22.66Zm-1,0c0-.73-.73-1.4-2-1.93a13.5,13.5,0,0,1-3.08-5.47,7.23,7.23,0,0,1-4.47,1.27,7.13,7.13,0,0,1-4.47-1.28,14.12,14.12,0,0,1-2.52,5.6C63.62,21.36,63,22,63,22.66c0,1.72,4.07,3.12,9.09,3.12S81.16,24.38,81.16,22.66Zm-5.25-9a.9.9,0,0,0-.18-.5,1.74,1.74,0,0,0-.51-.5,8,8,0,0,0-7.12,0,1.74,1.74,0,0,0-.51.5.9.9,0,0,0-.18.5c0,1,1.9,1.83,4.25,1.83S75.91,14.71,75.91,13.7Z" transform="translate(-0.25 -0.25)"/><path class="cls-2" d="M78.2,26l2.24,1.92C77.88,31.87,74.85,41,73.8,45.77c-.15.68-.27,1.36-.38,2-.07-.93-.16-1.88-.32-2.83-1-6.13-4.59-13.47-8-17.15h-.31l.07-2.16a20.85,20.85,0,0,0,7.22,1.13A22.85,22.85,0,0,0,78.2,26Z" transform="translate(-0.25 -0.25)"/><path class="cls-3" d="M79.21,20.73c1.22.53,2,1.2,2,1.93,0,1.72-4.07,3.12-9.08,3.12S63,24.38,63,22.66c0-.68.63-1.3,1.68-1.81a14.12,14.12,0,0,0,2.52-5.6,7.13,7.13,0,0,0,4.47,1.28,7.23,7.23,0,0,0,4.47-1.27A13.5,13.5,0,0,0,79.21,20.73Z" transform="translate(-0.25 -0.25)"/><path class="cls-2" d="M78.44,16.07l-1,.22a7.43,7.43,0,0,1-.58-2.61h0c0-1.84-2.65-2.8-5.25-2.8s-5.19,1-5.24,2.77v0a12,12,0,0,1-.5,2.55l-2.81-.78a15.5,15.5,0,0,0-.37-9.21,14.68,14.68,0,0,0-.58-1.39c-.08-.17-.15-.34-.24-.51A12.94,12.94,0,0,1,67.58,3h.17A14,14,0,0,1,72,3.67l.1,0C75.94,5,78.18,12.31,78.44,16.07Z" transform="translate(-0.25 -0.25)"/><path d="M74.68,113.81c2.27-.06,3.12,1.84,2.83,4.34-.31,2.73-1.52,4.34-3.4,4.4s-2.81-1.56-2.84-4.13S72.49,113.88,74.68,113.81Zm1.21,4.46c.16-2-.26-3.18-1.31-3.15s-1.59,1.19-1.64,3.29.45,3,1.3,3S75.72,120.3,75.89,118.27Z" transform="translate(-0.25 -0.25)"/><path class="cls-1" d="M74.58,115.12c1,0,1.47,1.18,1.31,3.15s-.75,3.11-1.65,3.14-1.35-1-1.3-3S73.65,115.15,74.58,115.12Z" transform="translate(-0.25 -0.25)"/><path class="cls-2" d="M75.73,13.2a.9.9,0,0,1,.18.5c0,1-1.9,1.83-4.25,1.83s-4.25-.82-4.25-1.83a.9.9,0,0,1,.18-.5,1.74,1.74,0,0,1,.51-.5,8,8,0,0,1,7.12,0A1.74,1.74,0,0,1,75.73,13.2Z" transform="translate(-0.25 -0.25)"/><path d="M70.19,121.21c0,.5,0,.75,0,1.24-2.18,0-3.2-.09-5.28-.27-.07-.36-.1-.54-.16-.91l.81-.8c1.66-1.63,2.62-2.66,2.55-3.8a1.61,1.61,0,0,0-1.72-1.54,2.82,2.82,0,0,0-1.83.62l-.66-1.22a4,4,0,0,1,2.71-.77,3,3,0,0,1,3.19,2.79c0,1.53-1,2.7-2.33,3.94l-.64.58v0C68.19,121.16,68.83,121.19,70.19,121.21Z" transform="translate(-0.25 -0.25)"/><path class="cls-2" d="M63.1,15.43l2.81.78A12.84,12.84,0,0,1,64,20.07c-1.66.87-2,1.88-2,2.59,0,1.33,1.15,2.31,2.87,3l-.07,2.16c-.72,0-1.47,0-2.25,0a87.59,87.59,0,0,0-16.16,1.7,79.35,79.35,0,0,0-18.72,5.81c-.28-3.84,9.64-10.78,23-16l1-.39c-1.53-.53-3.14-1-4.81-1.41a46.67,46.67,0,0,0-10.61-1.3,24.42,24.42,0,0,0-10.13,1.85c4-3.21,11.46-5.36,20.07-5.36a40.84,40.84,0,0,1,16,2.94Z" transform="translate(-0.25 -0.25)"/><path class="cls-1" d="M61.81,6.64a14.58,14.58,0,0,1,.47,7.94,42.24,42.24,0,0,0-16-2.88c-8.51,0-16.45,2.14-20.72,5.59L21,21,19.16,18.7s12.63-14,28-14A24.53,24.53,0,0,1,59.41,8,18.82,18.82,0,0,1,61.81,6.64Z" transform="translate(-0.25 -0.25)"/><path d="M51.31,117.46c.69,1.57.14,2.49-1.61,2a8,8,0,0,1-2.13-1c-.16-.42-.24-.63-.39-1.06a7.09,7.09,0,0,0,1.83.9c.81.24,1.34,0,.87-1a4.35,4.35,0,0,0-3-2.17,7.28,7.28,0,0,0-1-.22c-.67-1.65-1-2.48-1.55-4.28,1.71.46,2.58.67,4.34,1.06.21.57.31.85.53,1.41-1.28-.29-1.92-.45-3.17-.77.21.68.32,1,.55,1.69a4.18,4.18,0,0,1,.56.11,6.8,6.8,0,0,1,2.18,1A5.87,5.87,0,0,1,51.31,117.46Z" transform="translate(-0.25 -0.25)"/><path d="M45.37,117.9l-1.26-.47a59.19,59.19,0,0,1-4.18-6.93h0l-.95.32c-.39-.54-.58-.81-1-1.35.51-.16.78-.24,1.33-.43.5.16.76.25,1.27.4A61.35,61.35,0,0,0,45.37,117.9Z" transform="translate(-0.25 -0.25)"/><path class="cls-1" d="M29.43,88.41c.48,2,.88,3.51,1.36,5L28.26,94a65.58,65.58,0,0,1-2-6.71C27.32,87.67,28.37,88.05,29.43,88.41Z" transform="translate(-0.25 -0.25)"/><path d="M28,107.06c2.18,2.73,3,3.81,1.57,2.87a35.76,35.76,0,0,1-5.95-5.62c-2.26-2.63-2.77-4-1.25-3.1S26,104.55,28,107.06Zm.5,1.75c.66.43,0-.41-1.68-2.44a22.89,22.89,0,0,0-3.55-3.87c-.65-.4-.31.45,1.49,2.58A22.85,22.85,0,0,0,28.47,108.81Z" transform="translate(-0.25 -0.25)"/><path class="cls-1" d="M26.79,106.37c1.66,2,2.34,2.87,1.68,2.44a22.85,22.85,0,0,1-3.74-3.73c-1.8-2.13-2.14-3-1.49-2.58A22.89,22.89,0,0,1,26.79,106.37Z" transform="translate(-0.25 -0.25)"/><path d="M25.54,107l-1-.8a52.48,52.48,0,0,1-6.35-6.92h0c-.16,0-.24,0-.38,0-.48-.55-.72-.84-1.19-1.4a5.56,5.56,0,0,0,.57,0l.93.68A53.5,53.5,0,0,0,25.54,107Z" transform="translate(-0.25 -0.25)"/><polygon points="118.81 64.34 113.93 76.5 109.09 65.99 118.81 64.34"/></g></g></svg>
