<svg xmlns="http://www.w3.org/2000/svg" viewBox="0 0 89.75 89.75"><defs><style>.cls-1,.cls-3{fill:#ffeea6;}.cls-2{fill:#231f20;}.cls-3{font-size:9.11px;font-family:MyriadPro-Regular, Myriad Pro;}.cls-4{letter-spacing:-0.03em;}</style></defs><title>todo_ikon_gul</title><g id="Layer_2" data-name="Layer 2"><g id="todo"><circle cx="44.88" cy="44.87" r="44.87"/><path class="cls-1" d="M66.25,23.66V69.89a3.64,3.64,0,0,1-3.65,3.64H27.07a3.64,3.64,0,0,1-3.64-3.64V23.66A3.64,3.64,0,0,1,27.07,20H37.48s0,3.79,0,3.79H30.3v.07H26.64V69.39H63.06V23.88H52.22L52.13,20H62.6A3.64,3.64,0,0,1,66.25,23.66Z"/><polygon class="cls-2" points="63.06 23.88 63.06 69.39 26.64 69.39 26.64 23.88 30.3 23.88 30.3 25.78 28.44 25.78 28.44 67.53 28.48 67.53 28.48 67.66 61.27 67.66 61.27 25.9 61.24 25.9 61.24 25.78 59.45 25.78 59.45 23.88 63.06 23.88"/><polygon points="61.27 25.9 61.27 67.66 28.48 67.66 28.48 67.53 61.24 67.53 61.24 25.9 61.27 25.9"/><path d="M61.24,25.9V67.53H28.48V25.9H30.3v7h0V33H59.49V25.9ZM34.07,48.77a1,1,0,0,0-1-1,1,1,0,0,0,0,2A1,1,0,0,0,34.07,48.77Zm0,6.54a1,1,0,0,0-1-1,1,1,0,0,0-1,1,1,1,0,0,0,1,1A1,1,0,0,0,34.07,55.31Z"/><polygon points="59.45 25.78 59.45 32.92 30.34 32.92 30.34 25.9 30.3 25.9 30.3 25.78 32.09 25.78 32.09 31.17 57.48 31.17 57.48 25.78 59.45 25.78"/><polygon points="59.45 23.88 59.45 25.78 57.48 25.78 57.48 25.7 50.3 25.68 50.3 23.88 52.22 23.88 59.45 23.88"/><rect class="cls-1" x="32.09" y="25.78" width="25.4" height="5.39"/><path class="cls-1" d="M57.48,25.7v.08H32.09V25.7l7.17,0V23.88H43.6a2,2,0,0,0,1.24.46,2,2,0,0,0,1.26-.46h4.2v1.8Z"/><path d="M52.13,20l.09,3.86H50.3V20.93a6.57,6.57,0,0,0,0-.91Z"/><path d="M52.13,20H50.25c-.55-6.09-5.41-5.59-5.41-5.59C38.7,15,39.26,20,39.26,20H37.48s.2-7.42,7.4-7.42S52.13,20,52.13,20Z"/><path class="cls-1" d="M50.3,20.93v2.95H46.1A2,2,0,0,0,47,22.24v-.13A2.1,2.1,0,0,0,44.84,20h5.41A6.57,6.57,0,0,1,50.3,20.93Z"/><path class="cls-1" d="M50.25,20h-11s-.56-5,5.58-5.59C44.84,14.43,49.7,13.93,50.25,20Z"/><path d="M47,22.11v.13a2,2,0,0,1-.85,1.64H43.6a2,2,0,0,1-.86-1.64v-.13a2.11,2.11,0,0,1,4.21,0Z"/><path d="M43.6,23.88h2.5a2,2,0,0,1-1.26.46A2,2,0,0,1,43.6,23.88Z"/><path class="cls-1" d="M39.26,20h5.58a2.08,2.08,0,0,0-2.1,2.09v.13a2,2,0,0,0,.86,1.64H39.26Z"/><polygon points="39.26 23.88 39.26 25.74 32.09 25.7 32.09 25.78 30.3 25.78 30.3 23.88 39.26 23.88"/><path d="M39.26,20v3.86h-9v-.07h7.18s0-3.79,0-3.79Z"/><path class="cls-1" d="M33.07,47.79a1,1,0,1,1,0,2,1,1,0,0,1,0-2Z"/><path class="cls-1" d="M33.07,54.33a1,1,0,0,1,1,1,1,1,0,0,1-1,1,1,1,0,0,1-1-1A1,1,0,0,1,33.07,54.33Z"/><rect x="30.3" y="25.9" width="0.04" height="7.01"/><rect class="cls-1" x="37.59" y="47.94" width="17" height="1.67"/><rect class="cls-1" x="37.59" y="54.48" width="17" height="1.67"/><rect class="cls-1" x="37.59" y="61.21" width="17" height="1.67"/><text class="cls-3" transform="translate(33.68 42.25)"><tspan class="cls-4">T</tspan><tspan x="4.28" y="0">ODO</tspan></text><polygon class="cls-1" points="31.75 61.05 32.21 60.68 32.95 62.19 33.95 59.31 34.54 59.54 33.08 63.52 31.75 61.05"/></g></g></svg>